<svg xmlns="http://www.w3.org/2000/svg" viewBox="0 0 512 512"><path d="M476.4 154.2c-1.4-3.9-5.1-6.5-9.3-6.5 0 0 0 0 0 0 -4.2 0-7.9 2.7-9.3 6.6 -0.1 0.4-13 37.2-30 73.4 -31 66.1-45.9 67.5-47.5 67.5 -2.3-0.1-7.4-4.8-12.1-22.1C339 165.6 280 8 279.4 6.4c-1.2-3.3-4.1-5.6-7.5-6.2 -3.4-0.6-6.9 0.6-9.2 3.3 -42.3 49.3-93.6 132-120.5 177v-42.6c0-4-2.4-7.6-6.1-9.1 -3.7-1.5-7.9-0.7-10.7 2.1C35.7 220.6-1.3 302 15.4 372.9c23 97.5 138.4 137 143.3 138.6 1 0.3 2.1 0.5 3.1 0.5 3.4 0 6.7-1.8 8.5-4.9 2.3-4 1.5-9.1-1.9-12.3 -0.5-0.4-45.9-41.8-56.1-83.6v0c-5.3-21.8-6.3-43.3-5.5-60.3 5.5 26.6 13.4 39 25.6 41.4 18 3.5 36.3-16.1 67.6-72.5 13-23.4 20-32.2 23.5-35.6 2.3 5.7 4.6 17.8 6.4 27 2.8 14.2 5.9 30.3 11.2 46.3 16.8 50.3 65.9 56.6 98.5 60.7 10 1.3 19.5 2.5 25.9 4.6 1.2 0.4 2.2 1.1 3 3 5.4 13.1-7.6 49.9-18.6 71.8 -1.8 3.6-1.2 7.8 1.4 10.9 2.6 3 6.8 4.1 10.6 2.9 53.4-17.8 92-50.5 114.7-97.1C529.4 305.8 478.6 160.4 476.4 154.2zM458.9 405.7c-17.1 35.1-44.4 61.4-81.4 78.5 8-20.3 16.3-48.7 9.2-65.8 -2.9-7-8.1-11.9-15-14.2 -8.2-2.7-18.6-4.1-29.7-5.5 -32.5-4.1-69.4-8.8-82.3-47.4 -4.9-14.7-7.9-30.2-10.6-43.8 -5-25.5-8.3-42.3-22-44.5 -0.9-0.1-1.7-0.2-2.6-0.2 -11.5 0-22.6 12.7-41.8 47.4 -34.5 62-45.5 62.8-46.6 62.7 -0.3-0.1-8-3.2-13.8-49.3 -1.5-11.8-4-20.2-11.3-23 -4.1-1.5-8.6-0.7-12 2.4C87 313.8 81.8 369 93.2 415.9c5 20.6 16.9 40.6 29 56.7 -5-2.9-10.2-6.1-15.5-9.7 -27.1-18.4-61.6-49.7-72.2-94.6 -14-59.4 15.6-128.6 87.9-206.1v54.4c0 4.5 3 8.4 7.3 9.5 4.3 1.1 8.9-0.8 11.1-4.6 0.7-1.3 69.7-121.7 126-192.2 15.7 42.8 58.8 162.4 82.4 249 2.4 8.9 9.8 35.9 30.4 36.6 12.3 0.4 32.5-7.3 66-78.9 8-17 15-33.9 20.2-47.3 3.8 14.7 8.1 34.4 11 56.7C482.9 289.5 484.5 353.1 458.9 405.7z"/></svg>
