<svg xmlns="http://www.w3.org/2000/svg" viewBox="0 0 512 512"><path d="M97.3 482.2c-23.3 0-45.2-9.1-61.7-25.6 -34-34-34-89.4 0-123.4L305.3 63.5c21.7-21.7 50.6-33.7 81.4-33.7 30.8 0 59.7 12 81.4 33.7 21.7 21.7 33.7 50.6 33.7 81.4 0 30.8-12 59.7-33.7 81.4L255.8 438.6c-6.4 6.4-16.7 6.4-23.1 0 -6.4-6.4-6.4-16.7 0-23.1l212.3-212.3c15.6-15.6 24.2-36.3 24.2-58.3 0-22-8.6-42.7-24.2-58.3 -15.6-15.6-36.3-24.2-58.3-24.2 -22 0-42.7 8.6-58.3 24.2L58.7 356.3c-21.3 21.3-21.3 55.9 0 77.2 20.6 20.6 56.6 20.6 77.2 0l181.1-181.1c4.9-4.9 7.7-11.7 7.7-18.7 0-7-2.8-13.7-7.8-18.7 -10.3-10.3-27.1-10.3-37.4 0L156 338.8c-6.4 6.4-16.7 6.4-23.1 0 -6.4-6.4-6.4-16.7 0-23.1l123.7-123.7c23-23 60.5-23 83.5 0 11.2 11.2 17.3 26 17.3 41.8 0 15.5-6.3 30.8-17.3 41.8L159 456.6C142.6 473.1 120.7 482.2 97.3 482.2z"/></svg>
