<svg xmlns="http://www.w3.org/2000/svg" viewBox="0 0 100 100"><style>.phone-a{fill:#FFF;}.phone-b{fill:#464655;}.phone-c{fill:#FF6469;}.phone-d{fill:#00DCCD;}.phone-e{fill:#FFDC69;}.phone-f{fill:#468CBE;}</style><g fill="none"><circle cx="50" cy="50" r="50" fill="currentColor"/><path d="M63.3 20.6L36.7 20.6C34.9 20.6 33.4 21.9 33.4 23.6L33.4 76.5C33.4 78.2 34.9 79.6 36.7 79.6L63.3 79.6C65.1 79.6 66.6 78.2 66.6 76.5L66.6 23.6C66.6 21.9 65.1 20.6 63.3 20.6L63.3 20.6ZM45.6 24.6C45.6 24.1 46.1 23.6 46.7 23.6L53.3 23.6C53.9 23.6 54.4 24.1 54.4 24.6L54.4 24.6C54.4 25.2 53.9 25.6 53.3 25.6L46.7 25.6C46.1 25.6 45.6 25.2 45.6 24.6L45.6 24.6 45.6 24.6ZM42.3 23.6C42.9 23.6 43.4 24.1 43.4 24.6 43.4 25.2 42.9 25.6 42.3 25.6 41.6 25.6 41.2 25.2 41.2 24.6 41.2 24.1 41.6 23.6 42.3 23.6L42.3 23.6ZM50 77.5C48.8 77.5 47.8 76.6 47.8 75.5 47.8 74.4 48.8 73.5 50 73.5 51.2 73.5 52.2 74.4 52.2 75.5 52.2 76.6 51.2 77.5 50 77.5L50 77.5ZM64.4 59.2L64.4 71.4 35.6 71.4 35.6 59.2 35.6 28.7 64.4 28.7 64.4 59.2 64.4 59.2Z" fill="#0097BA"/><path d="M35.6 59.2L44.5 59.2C44.5 58.7 45 58.2 45.6 58.2 46.2 58.2 46.7 58.7 46.7 59.2L48.9 59.2C48.9 58.7 49.4 58.2 50 58.2 50.6 58.2 51.1 58.7 51.1 59.2L53.3 59.2C53.3 58.7 53.8 58.2 54.4 58.2 55 58.2 55.5 58.7 55.5 59.2L64.4 59.2 64.4 28.7 35.6 28.7 35.6 59.2 35.6 59.2ZM55.5 33.8C55.5 33.2 56 32.8 56.6 32.8L61.1 32.8C61.7 32.8 62.2 33.2 62.2 33.8L62.2 37.8C62.2 38.4 61.7 38.9 61.1 38.9L56.6 38.9C56 38.9 55.5 38.4 55.5 37.8L55.5 33.8 55.5 33.8ZM55.5 41.9C55.5 41.4 56 40.9 56.6 40.9L61.1 40.9C61.7 40.9 62.2 41.4 62.2 41.9L62.2 46C62.2 46.5 61.7 47 61.1 47L56.6 47C56 47 55.5 46.5 55.5 46L55.5 41.9 55.5 41.9ZM55.5 50.1C55.5 49.5 56 49 56.6 49L61.1 49C61.7 49 62.2 49.5 62.2 50.1L62.2 54.1C62.2 54.7 61.7 55.1 61.1 55.1L56.6 55.1C56 55.1 55.5 54.7 55.5 54.1L55.5 50.1 55.5 50.1ZM46.7 33.8C46.7 33.2 47.2 32.8 47.8 32.8L52.2 32.8C52.8 32.8 53.3 33.2 53.3 33.8L53.3 37.8C53.3 38.4 52.8 38.9 52.2 38.9L47.8 38.9C47.2 38.9 46.7 38.4 46.7 37.8L46.7 33.8 46.7 33.8ZM46.7 41.9C46.7 41.4 47.2 40.9 47.8 40.9L52.2 40.9C52.8 40.9 53.3 41.4 53.3 41.9L53.3 46C53.3 46.5 52.8 47 52.2 47L47.8 47C47.2 47 46.7 46.5 46.7 46L46.7 41.9 46.7 41.9ZM46.7 50.1C46.7 49.5 47.2 49 47.8 49L52.2 49C52.8 49 53.3 49.5 53.3 50.1L53.3 54.1C53.3 54.7 52.8 55.1 52.2 55.1L47.8 55.1C47.2 55.1 46.7 54.7 46.7 54.1L46.7 50.1 46.7 50.1ZM37.8 33.8C37.8 33.2 38.3 32.8 38.9 32.8L43.4 32.8C44 32.8 44.5 33.2 44.5 33.8L44.5 37.8C44.5 38.4 44 38.9 43.4 38.9L38.9 38.9C38.3 38.9 37.8 38.4 37.8 37.8L37.8 33.8 37.8 33.8ZM37.8 41.9C37.8 41.4 38.3 40.9 38.9 40.9L43.4 40.9C44 40.9 44.5 41.4 44.5 41.9L44.5 46C44.5 46.5 44 47 43.4 47L38.9 47C38.3 47 37.8 46.5 37.8 46L37.8 41.9 37.8 41.9ZM37.8 50.1C37.8 49.5 38.3 49 38.9 49L43.4 49C44 49 44.5 49.5 44.5 50.1L44.5 54.1C44.5 54.7 44 55.1 43.4 55.1L38.9 55.1C38.3 55.1 37.8 54.7 37.8 54.1L37.8 50.1 37.8 50.1Z" class="phone-a"/><path d="M54.4 60.2C53.8 60.2 53.3 59.8 53.3 59.2L51.1 59.2C51.1 59.8 50.6 60.2 50 60.2 49.4 60.2 48.9 59.8 48.9 59.2L46.7 59.2C46.7 59.8 46.2 60.2 45.6 60.2 45 60.2 44.5 59.8 44.5 59.2L35.6 59.2 35.6 71.4 64.4 71.4 64.4 59.2 55.5 59.2C55.5 59.8 55 60.2 54.4 60.2L54.4 60.2ZM44.5 67.4C44.5 67.9 44 68.4 43.4 68.4L38.9 68.4C38.3 68.4 37.8 67.9 37.8 67.4L37.8 63.3C37.8 62.7 38.3 62.3 38.9 62.3L43.4 62.3C44 62.3 44.5 62.7 44.5 63.3L44.5 67.4 44.5 67.4ZM53.3 67.4C53.3 67.9 52.8 68.4 52.2 68.4L47.8 68.4C47.2 68.4 46.7 67.9 46.7 67.4L46.7 63.3C46.7 62.7 47.2 62.3 47.8 62.3L52.2 62.3C52.8 62.3 53.3 62.7 53.3 63.3L53.3 67.4 53.3 67.4ZM56.6 62.3L61.1 62.3C61.7 62.3 62.2 62.7 62.2 63.3L62.2 67.4C62.2 67.9 61.7 68.4 61.1 68.4L56.6 68.4C56 68.4 55.5 67.9 55.5 67.4L55.5 63.3C55.5 62.7 56 62.3 56.6 62.3L56.6 62.3Z" class="phone-a"/><g class="phone-b"><path d="M46.7 25.6L53.3 25.6C53.9 25.6 54.4 25.2 54.4 24.6L54.4 24.6C54.4 24.1 53.9 23.6 53.3 23.6L46.7 23.6C46.1 23.6 45.6 24.1 45.6 24.6L45.6 24.6C45.6 25.2 46.1 25.6 46.7 25.6L46.7 25.6Z"/></g><path d="M52.2 62.3L47.8 62.3C47.2 62.3 46.7 62.7 46.7 63.3L46.7 67.4C46.7 67.9 47.2 68.4 47.8 68.4L52.2 68.4C52.8 68.4 53.3 67.9 53.3 67.4L53.3 63.3C53.3 62.7 52.8 62.3 52.2 62.3L52.2 62.3ZM50 67.4C48.8 67.4 47.8 66.4 47.8 65.3 47.8 64.2 48.8 63.3 50 63.3 51.2 63.3 52.2 64.2 52.2 65.3 52.2 66.4 51.2 67.4 50 67.4L50 67.4Z" fill="#63AFDB"/><path d="M55.5 67.4C55.5 67.9 56 68.4 56.6 68.4L61.1 68.4C61.7 68.4 62.2 67.9 62.2 67.4L62.2 63.3C62.2 62.7 61.7 62.3 61.1 62.3L56.6 62.3C56 62.3 55.5 62.7 55.5 63.3L55.5 67.4 55.5 67.4Z" class="phone-c"/><path d="M43.4 62.3L38.9 62.3C38.3 62.3 37.8 62.7 37.8 63.3L37.8 67.4C37.8 67.9 38.3 68.4 38.9 68.4L43.4 68.4C44 68.4 44.5 67.9 44.5 67.4L44.5 63.3C44.5 62.7 44 62.3 43.4 62.3L43.4 62.3Z" class="phone-d"/><path d="M47.8 55.1L52.2 55.1C52.8 55.1 53.3 54.7 53.3 54.1L53.3 50.1C53.3 49.5 52.8 49 52.2 49L47.8 49C47.2 49 46.7 49.5 46.7 50.1L46.7 54.1C46.7 54.7 47.2 55.1 47.8 55.1L47.8 55.1Z" class="phone-e"/><path d="M56.6 55.1L61.1 55.1C61.7 55.1 62.2 54.7 62.2 54.1L62.2 50.1C62.2 49.5 61.7 49 61.1 49L56.6 49C56 49 55.5 49.5 55.5 50.1L55.5 54.1C55.5 54.7 56 55.1 56.6 55.1L56.6 55.1ZM56.6 52.1C56.6 51.5 57.1 51.1 57.7 51.1L60 51.1C60.6 51.1 61.1 51.5 61.1 52.1L61.1 52.1C61.1 52.7 60.6 53.1 60 53.1L57.7 53.1C57.1 53.1 56.6 52.7 56.6 52.1L56.6 52.1 56.6 52.1Z" class="phone-a"/><path d="M38.9 55.1L43.4 55.1C44 55.1 44.5 54.7 44.5 54.1L44.5 50.1C44.5 49.5 44 49 43.4 49L38.9 49C38.3 49 37.8 49.5 37.8 50.1L37.8 54.1C37.8 54.7 38.3 55.1 38.9 55.1L38.9 55.1ZM38.9 52.1C38.9 51.5 39.4 51.1 40 51.1L42.3 51.1C42.9 51.1 43.4 51.5 43.4 52.1L43.4 52.1C43.4 52.7 42.9 53.1 42.3 53.1L40 53.1C39.4 53.1 38.9 52.7 38.9 52.1L38.9 52.1 38.9 52.1Z" class="phone-f"/><path d="M47.8 47L52.2 47C52.8 47 53.3 46.5 53.3 46L53.3 41.9C53.3 41.4 52.8 40.9 52.2 40.9L47.8 40.9C47.2 40.9 46.7 41.4 46.7 41.9L46.7 46C46.7 46.5 47.2 47 47.8 47L47.8 47ZM47.8 44C47.8 43.4 48.3 42.9 48.9 42.9L51.1 42.9C51.7 42.9 52.2 43.4 52.2 44L52.2 44C52.2 44.5 51.7 45 51.1 45L48.9 45C48.3 45 47.8 44.5 47.8 44L47.8 44 47.8 44Z" class="phone-b"/><path d="M56.6 47L61.1 47C61.7 47 62.2 46.5 62.2 46L62.2 41.9C62.2 41.4 61.7 40.9 61.1 40.9L56.6 40.9C56 40.9 55.5 41.4 55.5 41.9L55.5 46C55.5 46.5 56 47 56.6 47L56.6 47Z" fill="#FFA055"/><path d="M38.9 47L43.4 47C44 47 44.5 46.5 44.5 46L44.5 41.9C44.5 41.4 44 40.9 43.4 40.9L38.9 40.9C38.3 40.9 37.8 41.4 37.8 41.9L37.8 46C37.8 46.5 38.3 47 38.9 47L38.9 47ZM41.2 41.9C42.4 41.9 43.4 42.8 43.4 44 43.4 45.1 42.4 46 41.2 46 39.9 46 38.9 45.1 38.9 44 38.9 42.8 39.9 41.9 41.2 41.9L41.2 41.9Z" fill="#A0D778"/><path d="M47.8 38.9L52.2 38.9C52.8 38.9 53.3 38.4 53.3 37.8L53.3 33.8C53.3 33.2 52.8 32.8 52.2 32.8L47.8 32.8C47.2 32.8 46.7 33.2 46.7 33.8L46.7 37.8C46.7 38.4 47.2 38.9 47.8 38.9L47.8 38.9Z" class="phone-c"/><path d="M56.6 38.9L61.1 38.9C61.7 38.9 62.2 38.4 62.2 37.8L62.2 33.8C62.2 33.2 61.7 32.8 61.1 32.8L56.6 32.8C56 32.8 55.5 33.2 55.5 33.8L55.5 37.8C55.5 38.4 56 38.9 56.6 38.9L56.6 38.9ZM58.8 33.8C60.1 33.8 61.1 34.7 61.1 35.8 61.1 36.9 60.1 37.8 58.8 37.8 57.6 37.8 56.6 36.9 56.6 35.8 56.6 34.7 57.6 33.8 58.8 33.8L58.8 33.8Z" class="phone-d"/><g class="phone-e"><path d="M38.9 38.9L43.4 38.9C44 38.9 44.5 38.4 44.5 37.8L44.5 33.8C44.5 33.2 44 32.8 43.4 32.8L38.9 32.8C38.3 32.8 37.8 33.2 37.8 33.8L37.8 37.8C37.8 38.4 38.3 38.9 38.9 38.9L38.9 38.9Z"/></g><path d="M48.9 45L51.1 45C51.7 45 52.2 44.5 52.2 44L52.2 44C52.2 43.4 51.7 42.9 51.1 42.9L48.9 42.9C48.3 42.9 47.8 43.4 47.8 44L47.8 44C47.8 44.5 48.3 45 48.9 45L48.9 45Z" class="phone-f"/><path d="M57.7 53.1L60 53.1C60.6 53.1 61.1 52.7 61.1 52.1L61.1 52.1C61.1 51.5 60.6 51.1 60 51.1L57.7 51.1C57.1 51.1 56.6 51.5 56.6 52.1L56.6 52.1C56.6 52.7 57.1 53.1 57.7 53.1L57.7 53.1Z" class="phone-c"/><path d="M40 53.1L42.3 53.1C42.9 53.1 43.4 52.7 43.4 52.1L43.4 52.1C43.4 51.5 42.9 51.1 42.3 51.1L40 51.1C39.4 51.1 38.9 51.5 38.9 52.1L38.9 52.1C38.9 52.7 39.4 53.1 40 53.1L40 53.1Z" class="phone-a"/></g></svg>
