<svg xmlns="http://www.w3.org/2000/svg">
  <symbol id="fire" viewBox="0 0 512 512">
    <path d="M476.4 154.2c-1.4-3.9-5.1-6.5-9.3-6.5 0 0 0 0 0 0 -4.2 0-7.9 2.7-9.3 6.6 -0.1 0.4-13 37.2-30 73.4 -31 66.1-45.9 67.5-47.5 67.5 -2.3-0.1-7.4-4.8-12.1-22.1C339 165.6 280 8 279.4 6.4c-1.2-3.3-4.1-5.6-7.5-6.2 -3.4-0.6-6.9 0.6-9.2 3.3 -42.3 49.3-93.6 132-120.5 177v-42.6c0-4-2.4-7.6-6.1-9.1 -3.7-1.5-7.9-0.7-10.7 2.1C35.7 220.6-1.3 302 15.4 372.9c23 97.5 138.4 137 143.3 138.6 1 0.3 2.1 0.5 3.1 0.5 3.4 0 6.7-1.8 8.5-4.9 2.3-4 1.5-9.1-1.9-12.3 -0.5-0.4-45.9-41.8-56.1-83.6v0c-5.3-21.8-6.3-43.3-5.5-60.3 5.5 26.6 13.4 39 25.6 41.4 18 3.5 36.3-16.1 67.6-72.5 13-23.4 20-32.2 23.5-35.6 2.3 5.7 4.6 17.8 6.4 27 2.8 14.2 5.9 30.3 11.2 46.3 16.8 50.3 65.9 56.6 98.5 60.7 10 1.3 19.5 2.5 25.9 4.6 1.2 0.4 2.2 1.1 3 3 5.4 13.1-7.6 49.9-18.6 71.8 -1.8 3.6-1.2 7.8 1.4 10.9 2.6 3 6.8 4.1 10.6 2.9 53.4-17.8 92-50.5 114.7-97.1C529.4 305.8 478.6 160.4 476.4 154.2zM458.9 405.7c-17.1 35.1-44.4 61.4-81.4 78.5 8-20.3 16.3-48.7 9.2-65.8 -2.9-7-8.1-11.9-15-14.2 -8.2-2.7-18.6-4.1-29.7-5.5 -32.5-4.1-69.4-8.8-82.3-47.4 -4.9-14.7-7.9-30.2-10.6-43.8 -5-25.5-8.3-42.3-22-44.5 -0.9-0.1-1.7-0.2-2.6-0.2 -11.5 0-22.6 12.7-41.8 47.4 -34.5 62-45.5 62.8-46.6 62.7 -0.3-0.1-8-3.2-13.8-49.3 -1.5-11.8-4-20.2-11.3-23 -4.1-1.5-8.6-0.7-12 2.4C87 313.8 81.8 369 93.2 415.9c5 20.6 16.9 40.6 29 56.7 -5-2.9-10.2-6.1-15.5-9.7 -27.1-18.4-61.6-49.7-72.2-94.6 -14-59.4 15.6-128.6 87.9-206.1v54.4c0 4.5 3 8.4 7.3 9.5 4.3 1.1 8.9-0.8 11.1-4.6 0.7-1.3 69.7-121.7 126-192.2 15.7 42.8 58.8 162.4 82.4 249 2.4 8.9 9.8 35.9 30.4 36.6 12.3 0.4 32.5-7.3 66-78.9 8-17 15-33.9 20.2-47.3 3.8 14.7 8.1 34.4 11 56.7C482.9 289.5 484.5 353.1 458.9 405.7z"/>
  </symbol>
  <symbol id="robot" viewBox="0 0 512 512">
    <path d="M408 224.8V160h0.7c17 0 31.3-14.7 31.3-32s-14.3-32-31.3-32h-35.2c-4.6-9.8-14.9-16-28.1-16h-41.4V44.3C304 19.1 283.5 0 256.3 0h-0.2c-27.5 0-48.2 19.1-48.2 44.3V80h-40.9c-0.9 0-1.7 0-2.5 0 -0.8 0-1.6 0-2.4 0 -5.9 0-11.6 0.2-16.5 2.6 -3.8 1.9-8.2 5.7-9.3 13.4h-33c-17 0-31.3 14.7-31.3 32s14.3 32 31.3 32h0.7v64.8c-14.5 2.8-24 13-24 26.8v60.4c0 13.2 10.8 24 24 24h16c13.2 0 24-10.8 24-24v-60.4c0-13.8-9.5-24.1-24-26.8V160h16.7c2.9 14 14.1 26.3 27.8 29.6l4.5 1.2 13.5 45.5c-13 6.6-22 20.1-22 35.7 0 16.1 9.6 30.1 23.4 36.4v21c-9.3 3.3-16 12.2-16 22.6s6.7 19.3 16 22.6V392c0 0.1 0 0.1 0 0.2 -23.1 1.8-40 18.5-40 40.2V496c-4.4 0-8 3.6-8 8s3.6 8 8 8h96c4.4 0 8-3.6 8-8s-3.6-8-8-8v-63.6c0-22.2-16.6-38.6-40-40.3 0-0.1 0-0.1 0-0.2v-17.4c9.3-3.3 16-12.2 16-22.6s-6.7-19.3-16-22.6v-17.4c0.2 0 0.4 0 0.6 0h31.4c4.4 0 8-3.6 8-8h32c0 4.4 3.6 8 8 8h31.8c0.1 0 0.1 0 0.2 0v17.4c-9.3 3.3-16 12.2-16 22.6s6.7 19.3 16 22.6V392c0 0.1 0 0.1 0 0.2 -23.1 1.8-40 18.5-40 40.2V496c-4.4 0-8 3.6-8 8s3.6 8 8 8h96c4.4 0 8-3.6 8-8s-3.6-8-8-8v-63.6c0-22.2-16.6-38.6-40-40.3 0-0.1 0-0.1 0-0.2v-17.4c9.3-3.3 16-12.2 16-22.6s-6.7-19.3-16-22.6V308.6c14-6.2 23.8-20.3 23.8-36.6 0-15.7-9.1-29.3-22.3-35.9l13.4-45.2 4.7-1.2c13.7-3.3 24.7-15.6 27.6-29.6h16.7v64.7c-14.4 2.7-24 13-24 26.8v44c0 0.2 0 0.3 0 0.5s0 0.3 0 0.5v15.5c0 13.2 10.8 24 24 24h16c13.2 0 24-10.8 24-24v-60.4C432 237.8 422.5 227.5 408 224.8zM120 320H104c-4.4 0-8-3.6-8-8V304h32v8C128 316.4 124.4 320 120 320zM128 251.6V288h-32v-36.4c0-8.5 8.7-11.6 16.1-11.6C114.8 240 128 240.6 128 251.6zM160 496v-16h64v16H160zM224 432.4V464h-64v-31.6c0-11.8 8.9-24.4 28.3-24.4h7.6C215.2 408 224 420.7 224 432.4zM192 360c-4.4 0-8-3.6-8-8s3.6-8 8-8 8 3.6 8 8S196.4 360 192 360zM288 496v-16h64v16H288zM352 432.4V464h-64v-31.6c0-11.8 8.9-24.4 28.3-24.4h7.6C343.2 408 352 420.7 352 432.4zM320 360c-4.4 0-8-3.6-8-8s3.6-8 8-8 8 3.6 8 8S324.4 360 320 360zM424 128c0 8.7-7 16-15.3 16h-32.7v-32h32.7C417 112 424 119.3 424 128zM224 44.3c0-16.4 13.5-28.3 32.2-28.3h0.2c18.3 0 31.6 11.9 31.6 28.3V80h-64V44.3zM88 128c0-8.7 7-16 15.3-16h32.7v32h-32.7C95 144 88 136.7 88 128zM200.6 296c-13.2 0-24-10.8-24-24s10.8-24 24-24h23.4v48H200.6zM240 288v-32h32v32H240zM311.8 296h-23.8v-48h23.8c13.2 0 24 10.8 24 24S325 296 311.8 296zM314 232.1c-0.7 0-1.5-0.1-2.2-0.1h-31.8c-4.4 0-8 3.6-8 8h-32c0-4.4-3.6-8-8-8h-31.4c-0.9 0-1.7 0-2.6 0.1l-10.8-36.5 44.6 11.7c0.1 0 0.1 0 0.2 0 6.6 1.6 15.2 2.4 24.3 2.4 9.2 0 17.9-0.9 24.5-2.4 0.1 0 0.1 0 0.2 0l43.9-11.5L314 232.1zM360 152.9c0 9.4-7.4 19.1-16.2 21.2 -0.1 0-0.1 0-0.2 0l-66.7 17.6c-5.4 1.3-12.9 2-20.7 2 -7.8 0-15.2-0.7-20.6-2l-67.2-17.6c-0.1 0-0.1 0-0.2 0 -8.9-2.1-16.3-11.8-16.3-21.1v-53c0-2.2 0.4-2.9 0.5-2.9 0.5-0.5 2.6-1.1 9.7-1.1 0.8 0 1.6 0 2.4 0 0.9 0 1.7 0 2.6 0h178.3c4.4 0 14.6 1.2 14.6 12V152.9zM399.9 240c7.5 0 16.2 3 16.2 11.6V288h-32v-36.4C384 240.6 397.2 240 399.9 240zM408 320h-16c-4.4 0-8-3.6-8-8V304h32v8C416 316.4 412.4 320 408 320z"/><path d="M285 128.3c-4.3 1.1-6.9 5.5-5.8 9.7 0.5 1.9 0.8 4 0.8 6 0 13.3-10.8 24.1-24.1 24.1s-24.1-10.8-24.1-24.1 10.8-24.1 24.1-24.1c2.1 0 4.1 0.3 6.1 0.8 4.3 1.1 8.6-1.4 9.8-5.7 1.1-4.3-1.4-8.6-5.7-9.8 -3.3-0.9-6.7-1.3-10.2-1.3 -22.1 0-40.1 18-40.1 40.1 0 22.1 18 40.1 40.1 40.1 22.1 0 40.1-18 40.1-40.1 0-3.4-0.4-6.7-1.2-10C293.6 129.7 289.3 127.2 285 128.3z"/><path d="M272 40h-32c-4.4 0-8 3.6-8 8s3.6 8 8 8h32c4.4 0 8-3.6 8-8S276.4 40 272 40z"/>
  </symbol>
  <symbol id="professional" viewBox="0 0 202.4 202.4">
    <path d="M101.2 202.4c-10.6 0-21-1.6-31-4.8 0 0 0 0 0 0 -42-13.5-70.2-52.2-70.2-96.4 0-27.3 10.7-52.9 30.1-72.1C49.6 10 75.3-0.4 102.7 0c54.9 0.8 99.6 46 99.8 100.9 0.1 40.7-24 77.4-61.5 93.4 0 0 0 0 0 0C128.3 199.7 115 202.4 101.2 202.4zM72.7 194.2c9.2 2.8 18.8 4.2 28.5 4.2 12.8 0 25.3-2.5 37-7.3l0.6-8.7c0-0.9 1.3-27.1 1.4-34.3 0.2-7.2 0-38.7 0-39 0-1.1 0.9-2 2-2 0 0 0 0 0 0 1.1 0 2 0.9 2 2 0 0.3 0.2 31.9 0 39.2 -0.1 5.5-0.9 22.4-1.3 30.3 0.6-0.1 1.3-0.2 2-0.3 1.6-0.1 8.4-4 8.5-8.1 0-0.2 0-0.4 0-0.6 0-4.7-1.7-13.4-3.6-22.6l-0.7-3.5c-2.2-11.3-2.7-16.1-2.9-24.6 -0.2-6.5-1.8-13.9-2.4-16.3 -1.7-0.9-6.1-3.2-12.4-5.7 -4.2-1.6-8-4.1-10.8-6.1 -0.1 0.2-0.1 0.3-0.3 0.5 -0.4 0.5-1 0.8-1.6 0.8h-2.1l1.1 0.9c0.4 0.3 0.7 0.7 0.7 1.2 0.1 0.3 1.3 7.3 2.9 23 0.5 4.8 0.7 10.3 0.7 15.7 0 9.9-0.6 19.3-0.9 22.9 -0.1 1.9-1.6 3.4-3.5 3.6 -1.9 0.2-3.6-1-4.1-2.9 -1.9-7.2-8.7-31.8-14.3-45.2 -5.2-12.4-13.1-24.6-15.9-28.9l-6.6 4.3 -0.1 4.6 0.4 10.9c0 0.1 0 0.1 0 0.2 0 0.3-0.9 25.2-2.9 41.4 -1.8 14.9-4.2 33.5-4.6 36.6 0.4 1.2 1.6 4.8 2.6 9.8C72.4 191.3 72.6 192.7 72.7 194.2zM101.2 4c-25.7 0-49.9 9.9-68.2 28C14.3 50.4 4 75 4 101.2c0 41.4 25.8 77.8 64.6 91.6 -0.1-0.7-0.2-1.2-0.3-1.8 -0.6-3.1-1.3-5.6-1.8-7.3 -2.2 1.2-5.8 2.3-9.4 0.8 -5.2-2.2-14.9-11.6-17-17.4 -0.4-1-0.5-2.5-0.5-4.3 0-4.3 1-10.6 2.2-18.4 0.7-4.2 1.3-8.2 1.5-10.4 0.4-6.8 0.4-35.1 0.4-35.4 0-0.8 0.5-1.6 1.3-1.9l9.5-3.7 1.1-7.6 -2.9-13c0-0.1 0-0.3 0-0.4 0-0.4 0.1-0.8 0.3-1.1l3.7-5.6 0.1-6.5c0-0.7 0.4-1.4 1.1-1.7l3.5-1.7v-7.3c0-0.7 0.3-1.3 0.9-1.7l2.1-1.4c-1.4-1-2.3-2.6-2.3-4.4V17.7c0-1.1 0.9-2 2-2h6.9c1.1 0 2 0.9 2 2v22.9c0 1.9-1 3.6-2.6 4.6l1.9 0.9c0.7 0.3 1.2 1 1.2 1.8v13.9c2.2 0.6 4.8 2.2 5.3 5.7 0.2 1.1 0.2 2.1 0.2 2.9 0 1.3-0.2 2.2-0.3 2.8 0.7 1.3 1.4 3 1.4 4.4 0 0.3 0 0.5-0.1 0.8 -0.1 0.4-0.4 1.2-0.7 2.2l3.4-2.2 2.6-4.9 0.4-4.7c-0.7-1.2-2.2-3.9-2.5-6.5 -0.2-1.3-0.3-2.4-0.3-3.1 -1.8-1-3.9-3.2-4-6.9l0-0.8c0-1 0-1.8 0-2.6 0-2.7 0.2-4 1.2-5.1 0.3-0.4 0.7-0.6 1.1-0.8 -0.6-2-1.3-5.1-1.3-8.1 0-1.8 0.3-3.5 0.9-5 2-4.1 6.6-13.8 21.4-13.8 0.1 0 0.1 0 0.2 0 12.9 0.1 17.1 4.7 18.4 8.6 0.3 1 0.4 1.9 0.4 2.6 0 0.1 0 0.3 0 0.4 1 1.1 2.7 3.3 3.1 5.9 0.1 0.4 0.1 0.7 0.1 1.1 0 2.7-1 6.2-1.6 8.2 1 1.1 2.3 3 2.3 5.6 0 0.3 0 0.7-0.1 1 -0.6 5-1.7 8.1-3.4 9.4 -0.5 0.4-1.1 0.7-1.5 1 -0.2 2.2-0.7 6.9-2 9.8 -1.3 2.9-3.8 4.6-5.4 5.5l-0.1 2.2 1.8-0.9c0.5-0.2 1.1-0.3 1.7 0 0.5 0.2 0.9 0.7 1.1 1.2l2.1 6.7c1.5 1.3 7.2 6.4 14 9 8.4 3.3 13.5 6.2 13.7 6.3 0.5 0.3 0.8 0.7 0.9 1.2 0.1 0.4 2.5 9.8 2.7 18.1 0.2 8.2 0.6 12.8 2.8 23.9l0.7 3.5c1.9 9.8 3.6 18.3 3.6 23.4 0 0.3 0 0.5 0 0.8 -0.3 6.6-9.2 11.6-12.2 11.9 -1 0.1-1.9 0.2-2.5 0.4l0 0c0 0 0 0 0 0l-0.4 6.6c34.3-16 56.2-50.3 56.1-88.4 -0.1-52.7-43.1-96.2-95.8-96.9C102.1 4 101.7 4 101.2 4zM43.5 163c0 1.2 0.1 2.2 0.3 2.8 1.6 4.3 10.3 13.2 14.8 15.1 2.8 1.2 5.9-0.5 7.1-1.3 0.5-4.1 2.7-21.9 4.5-36.2 1.4-11.2 2.2-26.8 2.6-35.1 -1.6 1.1-3.6 2-6.3 2 -6.9 0-12.8-5.8-13-6.1 -0.4-0.4-0.6-0.9-0.6-1.4 0-0.1 0-0.2 0-0.3l0.7-4.9 -6.1 2.4c0 5.8 0 28.2-0.4 34.3 -0.1 2.5-0.8 6.4-1.5 10.9C44.8 150.6 43.5 158.5 43.5 163zM86.3 79.5c2.5 3.7 11.1 16.6 16.7 30.2 5.6 13.3 12.2 37.3 14.4 45.2 0.3-3.9 0.8-12.8 0.8-22.1 0-5.2-0.2-10.6-0.7-15.2 -1.3-12.7-2.4-19.8-2.8-22l-4.5-3.5h-2.5l-6.6 4.9c-0.5 0.4-1.2 0.5-1.8 0.3 -0.6-0.2-1.1-0.7-1.3-1.3l-4.2-14.3 -6.2-4.7L86.3 79.5zM57.1 102c1.6 1.3 5.4 4.3 9.5 4.3 3.9 0 6-3.2 6.5-4.3l-0.2-6.7c-1.8 1-4.1 1.7-6.4 0.9 -2.4-0.9-5.7-3.4-7.8-5.1l-0.5 3.7c0 0 0 0 0 0L57.1 102zM59.8 86.7c1.8 1.6 5.8 4.8 8 5.6 1.4 0.5 3.6-0.8 4.9-1.9l0.1-4.8c0-0.1 0-0.2 0-0.2 0-0.2 0.1-0.4 0.2-0.6 1.3-3.1 2.8-6.6 2.9-7.4 0-0.4-0.6-2-1.3-3.2 -0.2-0.4-0.3-0.7-0.3-1.1 0-0.3 0.1-0.6 0.3-0.9 0.1-0.2 0.3-0.8 0.3-2 0-0.6 0-1.4-0.2-2.3 -0.3-2.4-3.1-2.6-3.4-2.6 -1.1 0-1.9-0.9-1.9-2V49.1l-2.4-1.1 -1.7 1.1v7.5c0 0.8-0.4 1.5-1.1 1.8l-3.5 1.8 -0.1 5.8c0 0.4-0.1 0.7-0.3 1l-3.5 5.4 2.8 12.5c0 0 0 0.1 0 0.1L59.8 86.7zM98.3 82.7l2.8 9.4 4.9-3.6c0.3-0.3 0.8-0.4 1.2-0.4h8.9l-0.7-2.2c0 0 0 0 0 0l0 0v0c0 0 0 0 0 0l0 0c0 0 0 0 0 0 0 0 0 0 0 0v0l-1.6-5 -2.7 1.3c0 0-0.1 0-0.1 0.1 0 0 0 0 0 0 0 0 0 0 0 0 0 0 0 0 0 0l-3.1 1.2c-0.3 0.1-0.6 0.2-0.9 0.1L98.3 82.7zM96.3 78.5l10.4 1 1.4-0.6 0.2-5.4c0-0.8 0.5-1.5 1.3-1.8 0 0 3.2-1.3 4.4-4 1.2-2.6 1.6-7.8 1.7-9.6 0-0.8 0.6-1.6 1.4-1.8l0 0c0 0 0.7-0.2 1.6-0.9 0.3-0.3 1.3-2 1.8-6.7 0-0.2 0-0.3 0-0.5 0-2.2-1.7-3.4-1.7-3.4 -0.6-0.4-0.9-1-0.9-1.7 0-0.2 0-0.5 0.1-0.7 0.8-2.1 1.9-5.9 1.9-8 0-0.2 0-0.4 0-0.6 -0.3-1.9-2-3.8-2.6-4.4 -0.4-0.4-0.7-0.9-0.7-1.5 0-0.3 0.1-0.6 0.2-0.8 0 0 0-0.1 0-0.2 0-0.2 0-0.7-0.3-1.3 -1.5-4.8-8.8-5.8-14.6-5.9 -0.1 0-0.1 0-0.2 0 -12.3 0-15.9 7.5-17.8 11.5 -0.4 0.8-0.6 1.9-0.6 3.1 0 3.3 1.2 7.3 1.8 8.9 0.1 0.2 0.1 0.5 0.1 0.7 0 0.4-0.1 0.8-0.4 1.1 -0.4 0.5-1 0.9-1.6 0.9 -0.2 0-0.6 0.1-0.7 0.2 -0.1 0.2-0.1 1-0.1 2.1 0 0.8 0 1.8 0 2.8l0 0.8c0 2.9 2.1 3.6 2.5 3.8 0.9 0.2 1.5 1 1.5 1.9 0 0 0 0.1 0 0.1 0 0 0 0.1 0 0.2 0 0.5 0 1.7 0.3 3.6 0.3 2 1.7 4.6 2.3 5.4 0.2 0.3 0.3 0.7 0.3 1.1 0 0.1 0 0.1 0 0.2l-0.4 4.7L96.3 78.5zM65.9 19.7v20.9c0 0.7 0.6 1.3 1.3 1.3h0.3c0.7 0 1.3-0.6 1.3-1.3V19.7H65.9zM54.9 137.2c-0.5 0-0.9-0.2-1.3-0.5l-1-0.8c-0.8-0.7-1-2-0.3-2.8 0.7-0.8 2-1 2.8-0.3l1 0.8c0.8 0.7 1 2 0.3 2.8C56 136.9 55.5 137.2 54.9 137.2zM54.9 126.9c-0.5 0-0.9-0.2-1.3-0.5l-1-0.8c-0.8-0.7-1-2-0.3-2.8 0.7-0.8 2-1 2.8-0.3l1 0.8c0.8 0.7 1 2 0.3 2.8C56 126.6 55.5 126.9 54.9 126.9zM54.9 116.6c-0.5 0-0.9-0.2-1.3-0.5l-1-0.8c-0.8-0.7-1-2-0.3-2.8 0.7-0.8 2-1 2.8-0.3l1 0.8c0.8 0.7 1 2 0.3 2.8C56 116.3 55.5 116.6 54.9 116.6z"/>
  </symbol>
</svg>
