<svg xmlns="http://www.w3.org/2000/svg" viewBox="0 0 100 100"><style>.advering-a{fill:#0097BA;}.advering-b{fill:#E5F2E6;}.advering-c{fill:#F3ED73;}.advering-d{fill:#996B39;}.advering-e{fill:#E3B071;}.advering-f{fill:#A6D0EE;}.advering-g{fill:#FFF;}.h{opacity:0.2;}</style><g fill="none"><circle cx="50" cy="50" r="50" fill="currentColor"/><path d="M58.5 67.7C58.5 66.1 57.6 64.7 56.5 64.7L49.9 64.7 49.9 100C49.9 100 50 100 50 100 51.5 100 53 99.9 54.5 99.8L54.5 73.2C54.5 73.2 58.5 69.4 58.5 67.7L58.5 67.7Z" fill="#0097BA"/><path d="M49.9 64.7L43.4 64.7C42.2 64.7 41.3 66.1 41.3 67.7 41.3 69.4 45.3 73.2 45.3 73.2L45.3 99.8C46.8 99.9 48.4 100 49.9 100L49.9 64.7 49.9 64.7Z" class="advering-a"/><g class="advering-b"><path d="M29.3 25C28.7 25 28.3 25.4 28.3 26L28.3 57.1C28.9 57.4 29.6 57.8 30.3 58.2L30.3 26C30.3 25.4 29.8 25 29.3 25L29.3 25Z"/><path d="M70.5 25C70 25 69.5 25.4 69.5 26L69.5 58.3C70.2 57.9 70.9 57.6 71.5 57.2L71.5 26C71.5 25.4 71.1 25 70.5 25L70.5 25Z"/><path d="M49.9 25C49.4 25 48.9 25.4 48.9 26L48.9 60.5C49.2 60.5 49.6 60.6 49.9 60.6 50.2 60.6 50.6 60.5 50.9 60.5L50.9 26C50.9 25.4 50.5 25 49.9 25L49.9 25Z"/></g><rect x="16.8" y="30.9" width="65.4" height="35.6" fill="#A2D4DE"/><path d="M46.3 50C60 49.3 72.6 49.9 82 52.3L82 51.5C73.7 49.3 62.5 48.2 50.1 48.2 36.9 48.2 25 49.5 16.6 52.1L16.6 54.8C24 52.3 34.5 50.7 46.3 50L46.3 50Z" fill="#69C6D4"/><path d="M50.1 51.8C62.5 51.8 73.7 52.8 82 55.1L82 52.3C72.6 49.9 60 49.3 46.3 50 34.5 50.7 24 52.3 16.6 54.8L16.6 55.6C25 53 36.9 51.8 50.1 51.8L50.1 51.8Z" fill="#70BFC8"/><path d="M16.6 55.6L16.6 56.1C25.8 53.7 38.4 52.9 52.1 53.5 63.9 54 74.4 55.4 82 57.8L82 55.1C73.7 52.8 62.5 51.8 50.1 51.8 36.9 51.8 25 53 16.6 55.6L16.6 55.6Z" class="advering-c"/><path d="M46.9 56.4C60.1 55.4 72.5 55.8 82 57.9L82 57.8C74.4 55.4 63.9 54 52.1 53.5 38.4 52.9 25.8 53.7 16.6 56.1L16.6 61.4C18.4 60.9 20.3 60.5 22.3 60.2 29 58.3 37.5 57.1 46.9 56.4L46.9 56.4Z" fill="#F3EA83"/><path d="M82 62.2L82 57.9C72.5 55.8 60.1 55.4 46.9 56.4 37.5 57.1 29 58.3 22.3 60.2 29.7 58.8 38.7 58.2 48.3 58.2 61.6 58.3 73.6 59.6 82 62.2L82 62.2Z" fill="#E7DD7F"/><g class="advering-c"><path d="M22.3 60.2C20.2 60.5 18.4 60.9 16.6 61.4L16.6 62C18.3 61.4 20.2 60.7 22.3 60.2L22.3 60.2Z"/><path d="M48.3 58.2C38.7 58.2 29.7 58.8 22.3 60.2 20.2 60.7 18.3 61.4 16.6 62L16.6 66.6 82 66.6 82 62.2C73.6 59.6 61.6 58.3 48.3 58.2L48.3 58.2Z"/></g><path d="M82.9 68.1L16 68.1C15.3 68.1 14.8 67.5 14.8 66.9L14.8 30.5C14.8 29.8 15.3 29.3 16 29.3L82.9 29.3C83.6 29.3 84.1 29.8 84.1 30.5L84.1 66.9C84.1 67.5 83.6 68.1 82.9 68.1L82.9 68.1ZM17.2 65.7L81.8 65.7 81.8 31.6 17.2 31.6 17.2 65.7 17.2 65.7Z" class="advering-a"/><path d="M67.1 56.6C66.9 56.6 66.8 56.5 66.8 56.4L65.5 51.7C65.4 51.6 65.5 51.4 65.6 51.4 65.8 51.4 65.9 51.4 65.9 51.6L67.3 56.3C67.3 56.4 67.3 56.6 67.1 56.6 67.1 56.6 67.1 56.6 67.1 56.6L67.1 56.6Z" class="advering-d"/><path d="M59.8 60.7C59.8 60.7 59.7 60.7 59.7 60.7 59.5 60.6 59.5 60.4 59.6 60.3L69.8 44.8C69.9 44.6 70.1 44.6 70.2 44.7 70.3 44.8 70.3 44.9 70.2 45L60 60.6C60 60.7 59.9 60.7 59.8 60.7L59.8 60.7Z" class="advering-e"/><g class="advering-d"><path d="M74.1 58.5C74 58.5 73.9 58.5 73.9 58.4L69.7 45C69.7 44.9 69.8 44.8 69.9 44.7 70 44.7 70.2 44.8 70.2 44.9L74.4 58.2C74.4 58.3 74.3 58.5 74.2 58.5 74.2 58.5 74.2 58.5 74.1 58.5L74.1 58.5Z"/><path d="M74.8 58.7C74.7 58.7 74.7 58.7 74.7 58.7L66.8 56.7C66.7 56.6 66.6 56.5 66.6 56.4 66.7 56.2 66.8 56.1 66.9 56.2L74.8 58.2C75 58.2 75 58.4 75 58.5 75 58.6 74.9 58.7 74.8 58.7L74.8 58.7Z"/></g><path d="M74.1 58.5C74.1 58.5 74.1 58.5 74.1 58.5L66.7 56.9C66.5 56.8 66.4 56.7 66.5 56.6 66.5 56.4 66.6 56.3 66.8 56.4L74.2 58C74.3 58.1 74.4 58.2 74.4 58.3 74.4 58.4 74.3 58.5 74.1 58.5L74.1 58.5Z" fill="#AA7243"/><g fill="#B17B48"><path d="M67.8 62.4C67.8 62.4 67.7 62.4 67.7 62.4L59.8 60.3C59.7 60.3 59.6 60.1 59.7 60 59.7 59.9 59.8 59.8 60 59.8L67.8 61.9C68 61.9 68.1 62 68 62.2 68 62.3 67.9 62.4 67.8 62.4L67.8 62.4Z"/><path d="M67.2 57C67.1 57 67.1 57 67.1 57L59.8 55.1C59.7 55.1 59.6 55 59.6 54.8 59.6 54.7 59.8 54.6 59.9 54.7L67.2 56.5C67.4 56.5 67.4 56.7 67.4 56.8 67.4 56.9 67.3 57 67.2 57L67.2 57Z"/></g><path d="M69.7 45.3C67.5 54.4 63.3 55.2 61.2 55L60 54.7 59.9 55.2 66.4 56.8 66.7 56.4 71 57.4C75.9 56.1 76.8 46.2 76.8 46.2L69.7 45.3 69.7 45.3Z" fill="#D1E8F8"/><g class="advering-f"><path d="M65.4 56.5L66.4 56.8 66.7 56.4 71 57.4C75.9 56.1 76.8 46.2 76.8 46.2L75.2 46C75 58.7 65.4 56.5 65.4 56.5L65.4 56.5Z"/><path d="M69.7 45.3C67.5 54.4 63.3 55.2 61.2 55L60 54.7 59.9 55.2 61.4 55.6C61.4 55.6 68.4 57.4 71.1 45.5L69.7 45.3 69.7 45.3Z"/></g><path d="M67.4 62.9C67.4 62.9 67.4 62.9 67.3 62.9 67.2 62.8 67.2 62.7 67.2 62.5L76.8 45.8C76.9 45.7 77 45.7 77.1 45.7 77.3 45.8 77.3 46 77.2 46.1L67.7 62.8C67.6 62.9 67.5 62.9 67.4 62.9L67.4 62.9Z" class="advering-e"/><path d="M72.5 45.7L73.9 45.8C73.9 45.8 73.4 56.7 64.4 56.3L63.1 56C63.1 56 71.5 56.1 72.5 45.7L72.5 45.7Z" class="advering-f"/><circle cx="26.8" cy="40" r="5.2" fill="#F8D12E"/><circle cx="27" cy="39.8" r="4" fill="#F8D958"/><g class="advering-g"><path d="M61.1 64.2L38.8 64.2 44.8 25.5 55.1 25.5 61.1 64.2Z" class="h"/><path d="M61.1 64.2L44.8 25.5 55.1 25.5 61.1 64.2Z" class="h"/><path d="M38.8 64.2L44.8 25.5 55.1 25.5 38.8 64.2Z" class="h"/></g><g class="advering-g"><path d="M83.3 62.5L59.4 62.5 65.4 25.5 75.7 25.5 83.3 62.5Z" class="h"/><path d="M83.3 62.5L65.4 25.5 75.7 25.5 83.3 62.5Z" class="h"/><path d="M59.4 62.5L65.4 25.5 75.7 25.5 59.4 62.5Z" class="h"/></g><g class="advering-g"><path d="M40.4 62.5L15.6 62.5 24.1 25.5 34.4 25.5 40.4 62.5Z" class="h"/><path d="M40.4 62.5L24.1 25.5 34.4 25.5 40.4 62.5Z" class="h"/><path d="M15.6 62.5L24.1 25.5 34.4 25.5 15.6 62.5Z" class="h"/></g></g></svg>
