<svg xmlns="http://www.w3.org/2000/svg" viewBox="0 0 505 505"><style>.a{fill:#FF7058;}</style><circle cx="252.5" cy="252.5" r="252.5" fill="#0097BA"/><path d="M392.4 396.6H112.6c-2.3 0-4.1-1.8-4.1-4.1V112.6c0-2.3 1.8-4.1 4.1-4.1h279.9c2.3 0 4.1 1.8 4.1 4.1v279.9C396.6 394.7 394.7 396.6 392.4 396.6z" fill="#324A5E"/><rect x="132.1" y="132.1" width="240.8" height="240.8" fill="#FFF"/><path d="M372.9 182.2v-3.9h-46.2v-46.2h-3.9v46.2h-44.3v-46.2h-3.9v46.2h-44.2v-46.2h-3.9v46.2h-44.2v-46.2h-3.9v46.2h-46.2v3.9h46.2v44.3h-46.2v3.9h46.2v44.2h-46.2v3.9h46.2v44.2h-46.2v3.9h46.2v46.2h3.9v-46.2h44.2v46.2h3.9v-46.2h44.2v46.2h3.9v-46.2h44.2v46.2h3.9v-46.2h46.2v-3.9h-46.2v-44.2h46.2v-3.9h-46.2v-44.2h46.2v-3.9h-46.2v-44.2h46.3V182.2zM226.5 322.8h-44.2v-44.3h44.2V322.8zM226.5 274.6h-44.2v-44.2h44.2V274.6zM226.5 226.5h-44.2v-44.2h44.2V226.5zM274.6 322.8h-44.2v-44.3h44.2V322.8zM274.6 274.6h-44.2v-44.2h44.2V274.6zM274.6 226.5h-44.2v-44.2h44.2V226.5zM322.8 322.8h-44.3v-44.3h44.2v44.3H322.8zM322.8 274.6h-44.3v-44.2h44.2v44.2H322.8zM322.8 226.5h-44.3v-44.2h44.2v44.2H322.8z" fill="#E6E9EE"/><polygon points="318.1 220.7 228.8 312.9 184.9 217.3 131.6 266.1 131.6 287.5 179.6 243.5 224.1 340.5 329.4 231.7 " class="a"/><polygon points="348 199.2 295.4 211.7 335.5 251.8" class="a"/></svg>
