<svg class="service__svg" xmlns="http://www.w3.org/2000/svg" viewBox="0 0 100 100"><style>.design-a{fill:#94A5A6;}.design-b{fill:#DD748A;}</style><g fill="none"><circle cx="50" cy="50" r="50" fill="currentColor"/><path d="M51.8 70.9C50.8 70.9 50 70.1 50 69.1L50 57.1 15.9 47.8C15.2 47.6 14.6 46.9 14.6 46.1L14.6 29.3C14.6 28.3 15.5 27.5 16.5 27.5L83.5 27.5C84.5 27.5 85.3 28.3 85.3 29.3 85.3 30.3 84.5 31.1 83.5 31.1L18.2 31.1 18.2 44.7 52.2 54.1C53 54.3 53.5 55 53.5 55.8L53.5 69.1C53.5 70.1 52.7 70.9 51.8 70.9L51.8 70.9Z" fill="#BDC3C7"/><rect x="19.1" y="27.5" width="6.1" height="3.5" class="design-a"/><path d="M65.8 31.7C60.4 31.7 60.4 27.8 55 27.8 49.6 27.8 49.6 31.7 44.1 31.7 38.7 31.7 38.7 27.8 33.3 27.8 27.9 27.8 27.8 31.7 22.4 31.7 21.9 31.7 21.5 31.7 20.9 31.6L20.9 32C20.9 35.3 23.6 37.9 26.9 37.9L77.2 37.9C80.5 37.9 83 35.3 83 32L83 30.5C81.3 29.4 80 27.8 76.6 27.8 71.2 27.8 71.2 31.7 65.8 31.7L65.8 31.7Z" fill="#006780"/><path d="M77.2 20.3L26.9 20.3C23.6 20.3 20.9 22.9 20.9 26.2L20.9 31.6C21.5 31.7 21.9 31.7 22.4 31.7 27.8 31.7 27.9 27.8 33.3 27.8 38.7 27.8 38.7 31.7 44.1 31.7 49.5 31.7 49.6 27.8 55 27.8 60.4 27.8 60.4 31.7 65.8 31.7 71.2 31.7 71.2 27.8 76.6 27.8 80 27.8 81.3 29.4 83 30.5L83 26.2C83 22.9 80.5 20.3 77.2 20.3L77.2 20.3Z" fill="#0097BA"/><rect x="50" y="59.4" width="3.5" height="6.6" class="design-a"/><path d="M54 61.9L52 61.9 50.1 61.9C49 61.9 48 62.8 48 63.9L48 85.9C48 87 49 87.9 50.1 87.9L52 87.9 54 87.9C55.1 87.9 55.9 87 55.9 85.9L55.9 63.9C55.9 62.8 55.1 61.9 54 61.9L54 61.9Z" class="design-b"/><path d="M54 61.9L52 61.9 52 87.9 54 87.9C55.1 87.9 55.9 87 55.9 85.9L55.9 63.9C55.9 62.8 55.1 61.9 54 61.9L54 61.9Z" class="design-b"/></g></svg>
