<svg xmlns="http://www.w3.org/2000/svg" viewBox="0 0 489.2 489.2"><path d="M427.2 175.2c-24.4 0.4-47.4 5.5-68.2 15.8 12.6-45 0-90.6-36.9-125.7 -0.9-1.2-2-2.2-3.2-2.8 -10.9-7.8-25.6 7.4-15.3 17.3 7.1 14.1 16.1 48-4.1 56.3 -9.4 3.9-19.7-13-23.3-18.9 -17.2-27.8-19.3-65.2-4.5-94.2 0.3-0.2 0.5-0.4 0.7-0.6 11.3-8.2 1.8-26.4-9.4-21.4 -3.3 0.2-6.6 1.8-8.9 5.5 -0.3 0.5-0.5 1-0.8 1.4 -51 41.3-71.7 106.5-47 169.3 0.5 1.4 1.3 2.5 2.1 3.5 4.6 11.9 10.4 33.8-5.2 39.4 -25.4 9.1-34.5-30-42.3-45.7 -15.1-30.4-47.2-50.2-77.6-62.7 -11.9-4.9-18 11-10.8 19.2 17.7 52.4-4.1 96.6-16.4 147.2 -8.7 35.9-7.5 74.1 6.2 108.6 25 63 88.8 96.1 153.4 101.9 68.9 6.1 160.2-21 191.9-87.5 30.4-63.7 6.4-139.7 27.9-206.4C441.2 187.9 438.4 175 427.2 175.2zM175.3 309.4c7.6 5.6 13.4 12.6 17.4 20.4l0.2 0.7c4.1 11.8 14 25.6 28.3 25.6 2.1 0 4.3-0.3 6.5-0.9 5.8-1.6 10.2-5.3 12.7-10.6 4.4-9.2 2.4-21.1-0.7-28.5 -0.3-0.6-0.6-1.2-1-1.8 -5.6-15.2-5.3-31.1 0.6-45 1.3 15.9 8 30.2 18.7 38.9 8.4 6.8 19.3 6.5 26.6-1 2-2.1 3.7-4.4 5-6.9 2.6 12.2 0 25-7.6 37.6 -0.2 0.3-0.3 0.6-0.5 0.9 -1.6 2.4-1.8 5.4-0.5 8 2.5 5 9.5 6.6 13.6 2.6 8.3-7.9 18.5-13.1 30.2-15.2 -2.9 13.6-3.2 27.4-3.5 40.9 -0.3 14.2-0.6 28.9-4.1 42.9 -7.7 31-45.6 45-79.8 45 -2.5 0-4.9-0.1-7.2-0.2 -33.6-2.1-60.9-23.6-67.9-53.7 -4.5-19.2 1.5-38.4 7.3-57C174.8 335.6 176.6 322.1 175.3 309.4zM393.3 372.8c-9.4 37.7-38.8 62.2-74.1 76.4 4.1-4.6 7.6-9.6 10.3-15.2 8.6-18.1 8.8-38.1 9.1-57.5 0.2-15.7 0.4-31.9 5-46.7 1.9-2.6 2.2-6.2 0.8-9.1 -1.3-2.8-4.1-4.5-7.5-4.5 0 0 0 0 0 0 -11.1 0.2-21.4 2.2-30.7 6 4.4-22.2-3-44.1-20.4-60.6 -0.7-0.9-1.5-1.6-2.2-2 -4.4-3.2-11.1-0.9-13.1 4.1 -1.2 2.9-0.5 6 1.6 8.3 2.5 5.2 5 14.8 2.9 20.4 -0.8 2-2 3.4-4.3 4.2 -1.3 0-3.7-1.5-8.1-8.6 -8.2-13.2-9.1-31-2.4-44.6 3-2.3 4.2-6.1 3-9.8 -1.5-4.5-6-7.1-10.1-5.6 -2.6 0.3-4.7 1.7-6.1 4l-0.2 0.4c-27 22.2-36.5 56.8-24.1 88.3 0.3 0.7 0.7 1.4 1.2 2.1 2.3 5.9 2.8 10.9 1.5 13.7 -0.5 1.2-1.4 2-2.7 2.5 -1 0.4-1.9 0.5-2.8 0.5 -6.3 0-10.2-9.7-13-16.8 -0.9-2.1-1.6-4.1-2.4-5.6 -6.8-13.5-20.4-24.6-40.6-33 -4-1.6-8 0-9.8 3.8 -1.4 3.2-1 6.9 1 9.6 6.6 19.9 1.4 37.6-4.1 56.4 -1.5 5.2-3.1 10.6-4.4 16.1 -4.8 19.6-3.6 39.1 3.2 56.5 4.5 11.4 11.7 21.4 20.9 29.5 -45.7-16-82.4-51.6-94-101 -9.1-39.1 2.9-78.3 14.4-115.4 10-32 15-62.1 9.3-93.6 19.5 12.1 35.4 28.4 46.1 49.7 0.1 0.4 0.1 0.8 0.3 1.2 9 26 31.4 54.3 62.5 45.5 30.7-8.7 30.5-46.4 20.5-70.3 -0.5-1.1-1.1-2.1-1.8-3 -14.8-39.2-10.3-79.4 10.8-111.9 -2.5 34.9 8.7 71.8 35.2 93.3 14.5 11.7 32.5 12 45.8-1.5 7.6-7.8 11.9-17.1 13.7-26.9 11.8 29.5 8.4 62.1-10.9 93.7 -0.3 0.6-0.6 1.1-0.8 1.7 -7.7 10.3 7.6 24.6 17.9 14.8 19.9-19 43.8-29.2 70-32.6C395.4 256.5 407.4 315.9 393.3 372.8z"/></svg>
