<svg xmlns="http://www.w3.org/2000/svg" viewBox="0 0 512 512"><path d="M408 224.8V160h0.7c17 0 31.3-14.7 31.3-32s-14.3-32-31.3-32h-35.2c-4.6-9.8-14.9-16-28.1-16h-41.4V44.3C304 19.1 283.5 0 256.3 0h-0.2c-27.5 0-48.2 19.1-48.2 44.3V80h-40.9c-0.9 0-1.7 0-2.5 0 -0.8 0-1.6 0-2.4 0 -5.9 0-11.6 0.2-16.5 2.6 -3.8 1.9-8.2 5.7-9.3 13.4h-33c-17 0-31.3 14.7-31.3 32s14.3 32 31.3 32h0.7v64.8c-14.5 2.8-24 13-24 26.8v60.4c0 13.2 10.8 24 24 24h16c13.2 0 24-10.8 24-24v-60.4c0-13.8-9.5-24.1-24-26.8V160h16.7c2.9 14 14.1 26.3 27.8 29.6l4.5 1.2 13.5 45.5c-13 6.6-22 20.1-22 35.7 0 16.1 9.6 30.1 23.4 36.4v21c-9.3 3.3-16 12.2-16 22.6s6.7 19.3 16 22.6V392c0 0.1 0 0.1 0 0.2 -23.1 1.8-40 18.5-40 40.2V496c-4.4 0-8 3.6-8 8s3.6 8 8 8h96c4.4 0 8-3.6 8-8s-3.6-8-8-8v-63.6c0-22.2-16.6-38.6-40-40.3 0-0.1 0-0.1 0-0.2v-17.4c9.3-3.3 16-12.2 16-22.6s-6.7-19.3-16-22.6v-17.4c0.2 0 0.4 0 0.6 0h31.4c4.4 0 8-3.6 8-8h32c0 4.4 3.6 8 8 8h31.8c0.1 0 0.1 0 0.2 0v17.4c-9.3 3.3-16 12.2-16 22.6s6.7 19.3 16 22.6V392c0 0.1 0 0.1 0 0.2 -23.1 1.8-40 18.5-40 40.2V496c-4.4 0-8 3.6-8 8s3.6 8 8 8h96c4.4 0 8-3.6 8-8s-3.6-8-8-8v-63.6c0-22.2-16.6-38.6-40-40.3 0-0.1 0-0.1 0-0.2v-17.4c9.3-3.3 16-12.2 16-22.6s-6.7-19.3-16-22.6V308.6c14-6.2 23.8-20.3 23.8-36.6 0-15.7-9.1-29.3-22.3-35.9l13.4-45.2 4.7-1.2c13.7-3.3 24.7-15.6 27.6-29.6h16.7v64.7c-14.4 2.7-24 13-24 26.8v44c0 0.2 0 0.3 0 0.5s0 0.3 0 0.5v15.5c0 13.2 10.8 24 24 24h16c13.2 0 24-10.8 24-24v-60.4C432 237.8 422.5 227.5 408 224.8zM120 320H104c-4.4 0-8-3.6-8-8V304h32v8C128 316.4 124.4 320 120 320zM128 251.6V288h-32v-36.4c0-8.5 8.7-11.6 16.1-11.6C114.8 240 128 240.6 128 251.6zM160 496v-16h64v16H160zM224 432.4V464h-64v-31.6c0-11.8 8.9-24.4 28.3-24.4h7.6C215.2 408 224 420.7 224 432.4zM192 360c-4.4 0-8-3.6-8-8s3.6-8 8-8 8 3.6 8 8S196.4 360 192 360zM288 496v-16h64v16H288zM352 432.4V464h-64v-31.6c0-11.8 8.9-24.4 28.3-24.4h7.6C343.2 408 352 420.7 352 432.4zM320 360c-4.4 0-8-3.6-8-8s3.6-8 8-8 8 3.6 8 8S324.4 360 320 360zM424 128c0 8.7-7 16-15.3 16h-32.7v-32h32.7C417 112 424 119.3 424 128zM224 44.3c0-16.4 13.5-28.3 32.2-28.3h0.2c18.3 0 31.6 11.9 31.6 28.3V80h-64V44.3zM88 128c0-8.7 7-16 15.3-16h32.7v32h-32.7C95 144 88 136.7 88 128zM200.6 296c-13.2 0-24-10.8-24-24s10.8-24 24-24h23.4v48H200.6zM240 288v-32h32v32H240zM311.8 296h-23.8v-48h23.8c13.2 0 24 10.8 24 24S325 296 311.8 296zM314 232.1c-0.7 0-1.5-0.1-2.2-0.1h-31.8c-4.4 0-8 3.6-8 8h-32c0-4.4-3.6-8-8-8h-31.4c-0.9 0-1.7 0-2.6 0.1l-10.8-36.5 44.6 11.7c0.1 0 0.1 0 0.2 0 6.6 1.6 15.2 2.4 24.3 2.4 9.2 0 17.9-0.9 24.5-2.4 0.1 0 0.1 0 0.2 0l43.9-11.5L314 232.1zM360 152.9c0 9.4-7.4 19.1-16.2 21.2 -0.1 0-0.1 0-0.2 0l-66.7 17.6c-5.4 1.3-12.9 2-20.7 2 -7.8 0-15.2-0.7-20.6-2l-67.2-17.6c-0.1 0-0.1 0-0.2 0 -8.9-2.1-16.3-11.8-16.3-21.1v-53c0-2.2 0.4-2.9 0.5-2.9 0.5-0.5 2.6-1.1 9.7-1.1 0.8 0 1.6 0 2.4 0 0.9 0 1.7 0 2.6 0h178.3c4.4 0 14.6 1.2 14.6 12V152.9zM399.9 240c7.5 0 16.2 3 16.2 11.6V288h-32v-36.4C384 240.6 397.2 240 399.9 240zM408 320h-16c-4.4 0-8-3.6-8-8V304h32v8C416 316.4 412.4 320 408 320z"/><path d="M285 128.3c-4.3 1.1-6.9 5.5-5.8 9.7 0.5 1.9 0.8 4 0.8 6 0 13.3-10.8 24.1-24.1 24.1s-24.1-10.8-24.1-24.1 10.8-24.1 24.1-24.1c2.1 0 4.1 0.3 6.1 0.8 4.3 1.1 8.6-1.4 9.8-5.7 1.1-4.3-1.4-8.6-5.7-9.8 -3.3-0.9-6.7-1.3-10.2-1.3 -22.1 0-40.1 18-40.1 40.1 0 22.1 18 40.1 40.1 40.1 22.1 0 40.1-18 40.1-40.1 0-3.4-0.4-6.7-1.2-10C293.6 129.7 289.3 127.2 285 128.3z"/><path d="M272 40h-32c-4.4 0-8 3.6-8 8s3.6 8 8 8h32c4.4 0 8-3.6 8-8S276.4 40 272 40z"/></svg>
