<svg xmlns="http://www.w3.org/2000/svg" viewBox="0 0 100 100"><g fill="none"><circle cx="50" cy="50" r="50" fill="currentColor"/><path d="M77.7 78.5L22.3 78.5C21.8 78.5 21.5 78.2 21.5 77.7L21.5 22.3C21.5 21.8 21.8 21.5 22.3 21.5L77.7 21.5C78.2 21.5 78.5 21.8 78.5 22.3L78.5 77.7C78.5 78.2 78.2 78.5 77.7 78.5L77.7 78.5Z" fill="#0097BA"/><rect x="26.2" y="26.2" width="47.7" height="47.7" fill="#FFF"/><path d="M73.8 36.1L73.8 35.3 64.7 35.3 64.7 26.2 63.9 26.2 63.9 35.3 55.1 35.3 55.1 26.2 54.4 26.2 54.4 35.3 45.6 35.3 45.6 26.2 44.9 26.2 44.9 35.3 36.1 35.3 36.1 26.2 35.3 26.2 35.3 35.3 26.2 35.3 26.2 36.1 35.3 36.1 35.3 44.9 26.2 44.9 26.2 45.6 35.3 45.6 35.3 54.4 26.2 54.4 26.2 55.1 35.3 55.1 35.3 63.9 26.2 63.9 26.2 64.7 35.3 64.7 35.3 73.8 36.1 73.8 36.1 64.7 44.9 64.7 44.9 73.8 45.6 73.8 45.6 64.7 54.4 64.7 54.4 73.8 55.1 73.8 55.1 64.7 63.9 64.7 63.9 73.8 64.7 73.8 64.7 64.7 73.8 64.7 73.8 63.9 64.7 63.9 64.7 55.1 73.8 55.1 73.8 54.4 64.7 54.4 64.7 45.6 73.8 45.6 73.8 44.9 64.7 44.9 64.7 36.1 73.8 36.1 73.8 36.1 73.8 36.1ZM44.9 63.9L36.1 63.9 36.1 55.1 44.9 55.1 44.9 63.9 44.9 63.9ZM44.9 54.4L36.1 54.4 36.1 45.6 44.9 45.6 44.9 54.4 44.9 54.4ZM44.9 44.9L36.1 44.9 36.1 36.1 44.9 36.1 44.9 44.9 44.9 44.9ZM54.4 63.9L45.6 63.9 45.6 55.1 54.4 55.1 54.4 63.9 54.4 63.9ZM54.4 54.4L45.6 54.4 45.6 45.6 54.4 45.6 54.4 54.4 54.4 54.4ZM54.4 44.9L45.6 44.9 45.6 36.1 54.4 36.1 54.4 44.9 54.4 44.9ZM63.9 63.9L55.1 63.9 55.1 55.1 63.9 55.1 63.9 63.9 63.9 63.9 63.9 63.9ZM63.9 54.4L55.1 54.4 55.1 45.6 63.9 45.6 63.9 54.4 63.9 54.4 63.9 54.4ZM63.9 44.9L55.1 44.9 55.1 36.1 63.9 36.1 63.9 44.9 63.9 44.9 63.9 44.9Z" fill="#E6E9EE"/><g fill="#DD748A"><path d="M63 43.7L45.3 62 36.6 43 26.1 52.7 26.1 56.9 35.6 48.2 44.4 67.4 65.2 45.9 63 43.7Z"/><path d="M68.9 39.4L58.5 41.9 66.4 49.9 68.9 39.4Z"/></g></g></svg>
