<svg xmlns="http://www.w3.org/2000/svg" viewBox="0 0 504 504"><style>.a{fill:#0097BA;}.b{fill:#F1543F;}</style><circle cx="252" cy="252" r="252" class="a"/><path d="M359.4 409.5H144.6c-1.4 0-2.5-1.1-2.5-2.5V97c0-1.4 1.1-2.5 2.5-2.5h214.8c1.4 0 2.5 1.1 2.5 2.5v310C361.9 408.4 360.8 409.5 359.4 409.5z" fill="#E6E9EE"/><rect x="142.1" y="134.2" width="219.7" height="213.9" fill="#54C0EB"/><path d="M283.7 124.9h-63.3c-1.1 0-2.1-0.9-2.1-2.1v-12.1c0-1.1 0.9-2.1 2.1-2.1h63.3c1.1 0 2.1 0.9 2.1 2.1v12.1C285.7 124 284.8 124.9 283.7 124.9z" class="a"/><circle cx="252" cy="381.3" r="20.7" class="a"/><path d="M252 386.2c-2.7 0-4.9-2.2-4.9-4.9s2.2-4.9 4.9-4.9c2.7 0 4.9 2.2 4.9 4.9S254.7 386.2 252 386.2z" fill="#2B3B4E"/><circle cx="252" cy="241.2" r="61.2" fill="#FFF"/><polygon points="223.1 267.5 195.5 241.2 223.1 214.9 231.2 223.4 212.6 241.2 231.2 258.9 " class="b"/><polygon points="280.9 267.5 272.8 258.9 291.4 241.2 272.8 223.4 280.9 214.9 308.5 241.2 " class="b"/><rect x="246.1" y="195.7" transform="matrix(-0.9299 -0.3678 0.3678 -0.9299 397.6157 558.0892)" width="11.8" height="90.9" class="b"/></svg>
