<svg xmlns="http://www.w3.org/2000/svg" viewBox="0 0 470 470"><path d="m257.6 360.5h-45c-4.1 0-7.5 3.4-7.5 7.5s3.4 7.5 7.5 7.5h45c4.1 0 7.5-3.4 7.5-7.5s-3.4-7.5-7.5-7.5z"/><path d="m470 397.3c0-0.3-0.1-0.6-0.1-0.9 0-0.1 0-0.1-0.1-0.2-0.1-0.2-0.1-0.5-0.2-0.7 0-0.1 0-0.1-0.1-0.2-0.1-0.3-0.2-0.5-0.3-0.8 0 0 0 0 0-0.1 0-0.1-41.6-78.3-41.6-78.3v-204.3c0-4.1-3.4-7.5-7.5-7.5s-7.5 3.4-7.5 7.5v198.6h-355v-211.1c0-12.4 10.1-22.5 22.5-22.5h297.6c4.1 0 7.5-3.4 7.5-7.5s-3.4-7.5-7.5-7.5h-297.6c-20.7 0-37.5 16.8-37.5 37.5v216.7l-41.6 78.3c0 0.1-0.1 0.1-0.1 0.1-0.1 0.2-0.2 0.5-0.3 0.8 0 0.1-0.1 0.1-0.1 0.2-0.1 0.2-0.1 0.4-0.2 0.7 0 0.1 0 0.1 0 0.2-0.1 0.3-0.1 0.6-0.1 0.9 0 0.3 0 0.5 0 0.8v15c0 20.7 16.8 37.5 37.5 37.5h395c20.7 0 37.5-16.8 37.5-37.5v-15c0-0.3 0-0.5 0-0.8zm-415.5-71.7h361l34.5 65h-430l34.5-65zm378 110h-395c-12.4 0-22.5-10.1-22.5-22.5v-7.5h440v7.5c0 12.4-10.1 22.5-22.5 22.5z"/><path d="m422.5 34.5h21.9l-179 179-55.4-55.4c-2.9-2.9-7.7-2.9-10.6 0l-124.7 124.7c-2.9 2.9-2.9 7.7 0 10.6 1.5 1.5 3.4 2.2 5.3 2.2s3.8-0.7 5.3-2.2l119.4-119.4 55.4 55.4c2.9 2.9 7.7 2.9 10.6 0l184.3-184.3v21.9c0 4.1 3.4 7.5 7.5 7.5s7.5-3.4 7.5-7.5v-40c0-4.1-3.4-7.5-7.5-7.5h-40c-4.1 0-7.5 3.4-7.5 7.5s3.4 7.5 7.5 7.5z"/></svg>
