<svg xmlns="http://www.w3.org/2000/svg" viewBox="0 0 100 100"><style>.web-a{fill:#FFF;}.web-b{fill:#DD748A;}</style><g fill="none"><circle cx="50" cy="50" r="50" fill="currentColor"/><path d="M15.8 74.1C15.8 74.4 16.1 74.7 16.4 74.7L83.6 74.7C83.9 74.7 84.2 74.4 84.2 74.1L84.2 34.5 15.8 34.5 15.8 74.1Z" class="web-a"/><path d="M84.2 35L84.2 28.3C84.2 26.3 82.6 24.8 80.7 24.8L19.3 24.8C17.4 24.8 15.8 26.3 15.8 28.3L15.8 35 84.2 35 84.2 35Z" fill="#0097BA"/><path d="M22.9 32.4C21.5 32.4 20.4 31.3 20.4 29.9 20.4 28.5 21.5 27.4 22.9 27.4L56.4 27.4C57.7 27.4 58.9 28.5 58.9 29.9 58.9 31.3 57.7 32.4 56.4 32.4L22.9 32.4Z" class="web-a"/><g fill="#324A5E"><path d="M23 30.8L22.5 30.8 21.9 29.1 22.4 29.1 22.8 30.1 23.1 29.1 23.6 29.1 23.9 30.1 24.3 29.1 24.8 29.1 24.2 30.8 23.7 30.8 23.3 29.9 23 30.8 23 30.8Z"/><path d="M25.9 30.8L25.4 30.8 24.9 29.1 25.3 29.1 25.7 30.1 26 29.1 26.5 29.1 26.8 30.1 27.2 29.1 27.7 29.1 27.1 30.8 26.6 30.8 26.3 29.9 25.9 30.8 25.9 30.8Z"/><path d="M28.8 30.8L28.3 30.8 27.7 29.1 28.2 29.1 28.6 30.1 28.9 29.1 29.4 29.1 29.7 30.1 30.1 29.1 30.6 29.1 30 30.8 29.5 30.8 29.1 29.9 28.8 30.8 28.8 30.8Z"/></g><g fill="#ACB3BA"><path d="M25.9 47.9L24.1 47.9 22 41.7 23.8 41.7 25 45.4 26.2 41.7 27.9 41.7 29.2 45.4 30.4 41.7 32.2 41.7 30.1 47.9 28.3 47.9 27.1 44.5 25.9 47.9 25.9 47.9Z"/><path d="M36.5 47.9L34.6 47.9 32.5 41.7 34.3 41.7 35.5 45.4 36.8 41.7 38.5 41.7 39.7 45.4 40.9 41.7 42.8 41.7 40.6 47.9 38.8 47.9 37.6 44.5 36.5 47.9 36.5 47.9Z"/><path d="M47 47.9L45.2 47.9 43 41.7 44.9 41.7 46.1 45.4 47.3 41.7 49 41.7 50.3 45.4 51.5 41.7 53.3 41.7 51.2 47.9 49.3 47.9 48.2 44.5 47 47.9 47 47.9Z"/></g><path d="M73.5 67.9L77.1 64.3 71.1 58.3 76.6 54.4 59.8 50.7 63.5 67.4 67.5 61.9 73.5 67.9Z" class="web-b"/><path d="M17 74.7L16.4 74.7 16.4 74.3 16.4 34.9 16.4 34.6 17.2 34.6 17.2 34.9 17.2 74 82.8 74 82.8 34.9 82.8 34.6 83.6 34.6 83.6 34.9 83.6 74.3 83.6 74.5 83.6 74 83.2 74 82.8 74ZM82.8 74.7L83.6 74.7 83.6 74.5Z" style="fill:#0097BA;stroke:#0097BA"/></g></svg>
