<?xml version="1.0" encoding="UTF-8"?>
<svg width="180px" height="180px" viewBox="0 0 180 180" version="1.1" xmlns="http://www.w3.org/2000/svg" xmlns:xlink="http://www.w3.org/1999/xlink" xmlns:sketch="http://www.bohemiancoding.com/sketch/ns">
    <!-- Generator: Sketch 3.3.2 (12043) - http://www.bohemiancoding.com/sketch -->
    <title>180 - iPhone 6 Plus</title>
    <desc>Created with Sketch.</desc>
    <defs></defs>
    <g id="Page-1" stroke="none" stroke-width="1" fill="none" fill-rule="evenodd" sketch:type="MSPage">
        <g id="180---iPhone-6-Plus" sketch:type="MSArtboardGroup" fill="#4A4A4A">
            <g id="ЦИС" sketch:type="MSLayerGroup" transform="translate(90.500000, 91.000000) scale(1, -1) translate(-90.500000, -91.000000) translate(8.000000, 7.000000)">
                <path d="M0,129.398477 L0,114.335124 L0,94.8387086 L15.7397655,87.8606703 C24.1349845,83.0889658 34.5607807,77.6121784 35.6939211,77.6121784 C36.8270615,77.6121784 35.1273537,87.8837355 35.6939239,97.1750775 L35.6939225,114.335125 L74.8275353,133.138361 C96.3572029,143.203981 113.61392,151.606287 113.61392,152.380566 C113.61392,153.154844 106.798482,156.920443 98.5832145,160.791835 L83.8523894,167.244156 L42.77605,148.661472 L0,129.398477 Z" id="Shape" sketch:type="MSShapeGroup"></path>
                <path d="M106.231912,128.530231 C105.382057,127.755952 111.839055,124.495556 119.771038,120.882256 L133.427282,113.818939 L133.427282,68.6526936 C133.427282,43.8757816 132.577426,23.3538282 133.427281,23.3538282 C134.277137,23.3538282 142.77569,27.3578403 150.424388,31.7454185 L164.588643,40.262482 L164.588643,83.1058923 L164.588643,125.949303 L152.222881,132.022846 C145.424039,136.152332 131.28692,142.289144 131.28692,142.289144 C131.28692,142.289144 128.89472,141.17678 121.246022,137.305387 C113.88061,133.175902 107.081768,129.304509 106.231912,128.530231 Z" id="Shape" sketch:type="MSShapeGroup"></path>
                <path d="M51.274603,103.495226 L51.274603,85.9449134 L51.274603,68.3946008 L67.9884238,61.1680014 L84.7022447,53.6833093 L99.1497847,61.1680014 L113.597325,68.6526936 L113.597325,86.9772848 L113.597325,105.043783 L100.849495,110.721825 C92.4608014,114.34205 84.7022439,117.900712 84.7022439,117.900712 C84.7022439,117.900712 72.9030745,113.533778 64.8722877,109.689454 L51.274603,103.495226 Z" id="Shape" sketch:type="MSShapeGroup"></path>
                <path d="M0.849855299,41.5639499 L43.3426202,20.131241 L88.3849514,0.0718459287 L99.1497847,6.71041366 L113.59732,15.7474625 L113.597325,30.1968615 L113.597325,47.2309885 L101.13278,40.7786676 L88.384951,34.3263468 L46.1595571,53.1656108 C23.2134641,64.2636026 0.849855321,75.5701877 0.849855299,75.5701877 C0.849855277,75.5701877 0.283285099,67.3622294 0.849855298,57.8127946 L0.849855299,41.5639499 Z" id="Shape" sketch:type="MSShapeGroup"></path>
            </g>
        </g>
    </g>
</svg>